# Blender v2.92.0 OBJ File: 'kayak_metric.blend'
# www.blender.org
mtllib Kayak.mtl
o Cube
v 0.496432 0.079975 -0.259855
v 0.657476 -0.038129 -0.231544
v -0.446241 0.069743 -0.295958
v -0.392576 -0.043234 -0.208939
v -1.729917 0.047986 0.000114
v -1.050086 -0.018674 -0.076922
v 0.000000 -0.064112 -0.249666
v 0.526469 0.008953 -0.274690
v -0.828200 -0.003109 -0.163697
v 1.360400 0.071002 -0.107624
v -1.358104 0.038225 -0.084632
v -0.081017 0.092154 -0.299382
v 1.028229 -0.033689 -0.153810
v 0.019161 0.016116 -0.301636
v 1.288655 0.020973 -0.138289
v -0.076958 -0.098360 -0.153810
v -1.365698 0.015659 -0.076358
v -0.220039 0.121616 -0.153810
v -1.387943 -0.001871 -0.029956
v -0.269711 -0.056547 -0.218686
v 0.582771 -0.014588 -0.256567
v -0.599207 -0.019626 -0.187431
v 1.560695 0.070585 -0.054715
v -0.902172 0.051218 -0.190295
v 0.287086 0.091669 -0.271221
v 0.803883 -0.039845 -0.192996
v -0.710150 -0.026811 -0.139358
v 0.328738 -0.053827 -0.240924
v 0.502248 0.047319 -0.276341
v -0.637220 0.033317 -0.233910
v 0.938619 0.072762 -0.183615
v -1.527634 0.037431 -0.042317
v -0.334946 0.082708 -0.302107
v 1.125242 -0.046922 -0.076906
v 0.254032 0.012534 -0.294856
v -0.315675 0.014385 -0.275622
v 0.016619 -0.026705 -0.284761
v 0.000000 0.048929 -0.303886
v 1.526773 0.035604 -0.071294
v 0.902158 0.012788 -0.215193
v 1.162240 -0.010147 -0.141298
v 1.338529 0.047974 -0.127879
v -0.141384 -0.111735 -0.076906
v -0.035638 -0.083932 -0.201738
v -0.525043 -0.052684 -0.115366
v 0.471264 -0.071787 -0.153810
v -1.096949 0.006275 -0.120028
v -1.561497 0.022646 -0.030972
v -1.207892 -0.000910 -0.076640
v -1.361901 0.024176 -0.080495
v -0.253742 0.125564 -0.076906
v -0.171784 0.108611 -0.220864
v 0.476839 0.130204 -0.133491
v -0.706861 0.066441 -0.148688
v -0.548837 0.076774 -0.235593
v 0.409330 0.119278 -0.204945
v 0.553074 0.134672 -0.066747
v -1.544991 0.027865 -0.040249
v -1.474720 0.010716 -0.032691
v -0.903550 -0.010268 -0.129693
v 0.392596 -0.062807 -0.197367
v -0.355075 -0.053326 -0.170548
v -0.693971 -0.052688 -0.057684
v 0.920389 0.047647 -0.202110
v 0.872505 -0.013528 -0.204095
v 1.326008 -0.002997 -0.068241
v -0.318610 0.041123 -0.289764
v -0.299604 -0.022988 -0.251556
v 0.291385 -0.020646 -0.272376
v 0.251124 0.048124 -0.290113
v 1.543332 0.055248 -0.063940
v 0.539941 -0.080036 -0.076906
v -0.999561 0.028746 -0.155161
v -0.807993 0.066805 -0.059612
v 0.496432 0.079975 0.259851
v 0.657476 -0.038129 0.231541
v 1.738976 0.068474 -0.000002
v 1.222255 -0.047620 -0.000002
v -0.446241 0.069743 0.295954
v -0.392576 -0.043234 0.208935
v -1.729917 0.047986 -0.000118
v -1.704451 0.033756 -0.000002
v -1.050086 -0.018674 0.076918
v 0.000000 -0.064112 0.249662
v 0.526469 0.008953 0.274686
v -1.757296 0.044701 -0.000002
v 1.746722 0.054585 -0.000002
v -0.828200 -0.003109 0.163693
v -0.284848 0.131380 -0.000002
v 1.360400 0.071002 0.107620
v -0.215607 -0.112212 -0.000002
v -1.358104 0.038225 0.084628
v -0.081017 0.092154 0.299378
v 1.028229 -0.033689 0.153807
v 0.019161 0.016116 0.301632
v 1.288655 0.020973 0.138285
v -0.076958 -0.098360 0.153807
v -1.365698 0.015659 0.076355
v -0.220039 0.121616 0.153807
v -1.387943 -0.001871 0.029952
v -0.269711 -0.056547 0.218682
v 0.582771 -0.014588 0.256563
v -1.751858 0.046572 -0.000002
v 1.489775 0.001151 -0.000002
v -0.599207 -0.019626 0.187428
v -0.846417 0.070016 -0.000002
v 1.560695 0.070585 0.054711
v 0.611128 -0.088284 -0.000002
v -0.902172 0.051218 0.190291
v 0.287086 0.091669 0.271217
v 0.803883 -0.039845 0.192993
v -0.710150 -0.026811 0.139354
v 0.328738 -0.053827 0.240920
v 0.502248 0.047319 0.276337
v -1.741548 0.040789 -0.000002
v 1.757704 0.062523 -0.000002
v -0.637220 0.033317 0.233907
v 0.603840 0.137158 -0.000002
v 0.938619 0.072762 0.183612
v -0.862900 -0.044802 -0.000002
v -1.527634 0.037431 0.042313
v -0.334946 0.082708 0.302103
v 1.125242 -0.046922 0.076902
v 0.254032 0.012534 0.294852
v -0.315675 0.014385 0.275618
v 0.016619 -0.026705 0.284757
v 0.000000 0.048929 0.303882
v 1.526773 0.035604 0.071290
v 0.902158 0.012788 0.215189
v 1.162240 -0.010147 0.141295
v 1.338529 0.047974 0.127875
v -0.141384 -0.111735 0.076902
v -0.035638 -0.083932 0.201734
v -0.525043 -0.052684 0.115362
v 0.471264 -0.071787 0.153807
v -1.096949 0.006275 0.120024
v -1.561497 0.022646 0.030968
v -1.207892 -0.000910 0.076637
v -1.361901 0.024176 0.080491
v -0.253742 0.125564 0.076902
v -0.171784 0.108611 0.220860
v 0.476839 0.130204 0.133487
v -0.706861 0.066441 0.148684
v -0.548837 0.076774 0.235590
v 0.409330 0.119278 0.204941
v 0.553074 0.134672 0.066743
v -1.544991 0.027865 0.040245
v -1.474720 0.010716 0.032687
v -0.903550 -0.010268 0.129689
v 0.392596 -0.062807 0.197363
v -0.355075 -0.053326 0.170544
v -0.693971 -0.052688 0.057680
v 0.920389 0.047647 0.202106
v 0.872505 -0.013528 0.204091
v 1.326008 -0.002997 0.068237
v -0.318610 0.041123 0.289760
v -0.299604 -0.022988 0.251552
v 0.291385 -0.020646 0.272372
v 0.251124 0.048124 0.290109
v 1.543332 0.055248 0.063937
v 0.539941 -0.080036 0.076902
v -0.999561 0.028746 0.155157
v -0.807993 0.066805 0.059608
vt 0.812500 0.687500
vt 0.875000 0.687500
vt 0.875000 0.750000
vt 0.812500 0.750000
vt 0.562500 0.187500
vt 0.625000 0.187500
vt 0.625000 0.250000
vt 0.562500 0.250000
vt 0.312500 0.687500
vt 0.375000 0.687500
vt 0.375000 0.750000
vt 0.312500 0.750000
vt 0.562500 0.687500
vt 0.625000 0.687500
vt 0.625000 0.750000
vt 0.562500 0.750000
vt 0.562500 0.437500
vt 0.625000 0.437500
vt 0.625000 0.500000
vt 0.562500 0.500000
vt 0.437500 0.437500
vt 0.500000 0.437500
vt 0.500000 0.500000
vt 0.437500 0.500000
vt 0.437500 0.312500
vt 0.500000 0.312500
vt 0.500000 0.375000
vt 0.437500 0.375000
vt 0.562500 0.312500
vt 0.625000 0.312500
vt 0.625000 0.375000
vt 0.562500 0.375000
vt 0.437500 0.687500
vt 0.500000 0.687500
vt 0.500000 0.750000
vt 0.437500 0.750000
vt 0.437500 0.562500
vt 0.500000 0.562500
vt 0.500000 0.625000
vt 0.437500 0.625000
vt 0.562500 0.562500
vt 0.625000 0.562500
vt 0.625000 0.625000
vt 0.562500 0.625000
vt 0.187500 0.687500
vt 0.250000 0.687500
vt 0.250000 0.750000
vt 0.187500 0.750000
vt 0.187500 0.562500
vt 0.250000 0.562500
vt 0.250000 0.625000
vt 0.187500 0.625000
vt 0.312500 0.562500
vt 0.375000 0.562500
vt 0.375000 0.625000
vt 0.312500 0.625000
vt 0.437500 0.187500
vt 0.500000 0.187500
vt 0.500000 0.250000
vt 0.437500 0.250000
vt 0.437500 0.062500
vt 0.500000 0.062500
vt 0.500000 0.125000
vt 0.437500 0.125000
vt 0.562500 0.062500
vt 0.625000 0.062500
vt 0.625000 0.125000
vt 0.562500 0.125000
vt 0.687500 0.687500
vt 0.750000 0.687500
vt 0.750000 0.750000
vt 0.687500 0.750000
vt 0.687500 0.562500
vt 0.750000 0.562500
vt 0.750000 0.625000
vt 0.687500 0.625000
vt 0.812500 0.562500
vt 0.875000 0.562500
vt 0.875000 0.625000
vt 0.812500 0.625000
vt 0.750000 0.500000
vt 0.812500 0.500000
vt 0.875000 0.500000
vt 0.687500 0.500000
vt 0.500000 0.000000
vt 0.562500 0.000000
vt 0.625000 0.000000
vt 0.375000 0.062500
vt 0.375000 0.125000
vt 0.375000 0.000000
vt 0.437500 0.000000
vt 0.375000 0.187500
vt 0.375000 0.250000
vt 0.250000 0.500000
vt 0.312500 0.500000
vt 0.375000 0.500000
vt 0.125000 0.562500
vt 0.125000 0.625000
vt 0.125000 0.500000
vt 0.187500 0.500000
vt 0.125000 0.687500
vt 0.125000 0.750000
vt 0.375000 0.312500
vt 0.375000 0.375000
vt 0.375000 0.437500
vt 0.812500 0.687500
vt 0.875000 0.750000
vt 0.875000 0.687500
vt 0.562500 0.187500
vt 0.562500 0.250000
vt 0.625000 0.250000
vt 0.625000 0.187500
vt 0.312500 0.687500
vt 0.375000 0.687500
vt 0.562500 0.687500
vt 0.625000 0.687500
vt 0.562500 0.437500
vt 0.562500 0.500000
vt 0.625000 0.500000
vt 0.625000 0.437500
vt 0.437500 0.437500
vt 0.437500 0.500000
vt 0.500000 0.500000
vt 0.500000 0.437500
vt 0.437500 0.312500
vt 0.437500 0.375000
vt 0.500000 0.375000
vt 0.500000 0.312500
vt 0.562500 0.312500
vt 0.562500 0.375000
vt 0.625000 0.375000
vt 0.625000 0.312500
vt 0.437500 0.687500
vt 0.500000 0.687500
vt 0.437500 0.562500
vt 0.437500 0.625000
vt 0.500000 0.625000
vt 0.500000 0.562500
vt 0.562500 0.562500
vt 0.562500 0.625000
vt 0.625000 0.625000
vt 0.625000 0.562500
vt 0.187500 0.687500
vt 0.250000 0.687500
vt 0.187500 0.562500
vt 0.187500 0.625000
vt 0.250000 0.625000
vt 0.250000 0.562500
vt 0.312500 0.562500
vt 0.312500 0.625000
vt 0.375000 0.625000
vt 0.375000 0.562500
vt 0.437500 0.187500
vt 0.437500 0.250000
vt 0.500000 0.250000
vt 0.500000 0.187500
vt 0.437500 0.062500
vt 0.437500 0.125000
vt 0.500000 0.125000
vt 0.500000 0.062500
vt 0.562500 0.062500
vt 0.562500 0.125000
vt 0.625000 0.125000
vt 0.625000 0.062500
vt 0.687500 0.687500
vt 0.750000 0.687500
vt 0.687500 0.562500
vt 0.687500 0.625000
vt 0.750000 0.625000
vt 0.750000 0.562500
vt 0.812500 0.562500
vt 0.812500 0.625000
vt 0.875000 0.625000
vt 0.875000 0.562500
vt 0.750000 0.500000
vt 0.812500 0.500000
vt 0.875000 0.500000
vt 0.687500 0.500000
vt 0.625000 0.000000
vt 0.375000 0.062500
vt 0.375000 0.125000
vt 0.375000 0.187500
vt 0.375000 0.250000
vt 0.250000 0.500000
vt 0.312500 0.500000
vt 0.375000 0.500000
vt 0.125000 0.562500
vt 0.125000 0.625000
vt 0.125000 0.500000
vt 0.187500 0.500000
vt 0.125000 0.687500
vt 0.375000 0.312500
vt 0.375000 0.375000
vt 0.375000 0.437500
vn -0.0336 0.9769 -0.2111
vn -0.1726 -0.5276 -0.8318
vn 0.0611 -0.9904 -0.1244
vn 0.2606 0.3979 -0.8796
vn 0.0608 0.4004 -0.9143
vn 0.0568 -0.5175 -0.8538
vn -0.0816 -0.4641 -0.8820
vn -0.0164 -0.1107 -0.9937
vn 0.1825 -0.9190 -0.3494
vn 0.1738 -0.5839 -0.7930
vn 0.1489 0.5418 -0.8272
vn -0.1060 -0.9848 -0.1373
vn -0.1255 -0.9165 -0.3798
vn 0.0619 -0.9637 -0.2597
vn -0.1038 -0.9017 -0.4198
vn -0.1102 -0.9188 -0.3790
vn -0.2281 -0.0512 -0.9723
vn -0.0084 0.9984 -0.0566
vn -0.0101 0.9856 -0.1689
vn -0.0615 0.9952 -0.0755
vn -0.0975 0.9842 -0.1477
vn -0.0587 0.9792 -0.1943
vn -0.1118 0.9473 -0.3003
vn 0.0814 0.9410 -0.3286
vn 0.0900 0.8719 -0.4813
vn 0.0033 0.9565 -0.2918
vn 0.0621 0.9908 -0.1201
vn 0.0677 0.9795 -0.1895
vn -0.0106 0.9984 -0.0553
vn -0.2029 -0.5140 -0.8334
vn -0.1997 -0.4913 -0.8478
vn -0.1550 0.3935 -0.9062
vn -0.1069 -0.8962 -0.4307
vn -0.1406 -0.9335 -0.3299
vn -0.1498 -0.9343 -0.3235
vn -0.1229 -0.9000 -0.4182
vn -0.1000 -0.9014 -0.4212
vn -0.0973 -0.9115 -0.3996
vn 0.0482 -0.9628 -0.2660
vn 0.0448 -0.9489 -0.3125
vn 0.0552 -0.9622 -0.2668
vn -0.0902 -0.9429 -0.3207
vn -0.0959 -0.9817 -0.1644
vn -0.0915 -0.9555 -0.2803
vn -0.0833 -0.9960 0.0330
vn -0.0801 -0.9694 -0.2321
vn -0.1163 -0.9481 -0.2959
vn 0.1802 0.1696 -0.9689
vn 0.1630 0.1652 -0.9727
vn 0.1542 0.4873 -0.8595
vn 0.1616 -0.6353 -0.7552
vn 0.1678 -0.5649 -0.8079
vn 0.1523 -0.4379 -0.8860
vn 0.1897 -0.9286 -0.3188
vn 0.2055 -0.8960 -0.3937
vn 0.1903 -0.8933 -0.4072
vn -0.0547 -0.2838 -0.9573
vn -0.1366 -0.6225 -0.7706
vn -0.0895 -0.5751 -0.8132
vn -0.0913 -0.6976 -0.7106
vn -0.1452 -0.7328 -0.6648
vn -0.1462 -0.6695 -0.7283
vn 0.0536 -0.6494 -0.7586
vn 0.0440 -0.6784 -0.7334
vn 0.0358 -0.4466 -0.8940
vn 0.0651 0.0655 -0.9957
vn 0.0426 0.0501 -0.9978
vn 0.0652 0.2912 -0.9544
vn 0.2995 -0.0449 -0.9530
vn 0.2851 -0.0414 -0.9576
vn 0.2448 0.4208 -0.8735
vn 0.0368 -0.9978 -0.0559
vn 0.0469 -0.9890 -0.1403
vn 0.0609 -0.9775 -0.2022
vn -0.1538 -0.6213 -0.7683
vn -0.1600 -0.5316 -0.8318
vn -0.1848 -0.4353 -0.8811
vn -0.1081 0.9868 -0.1203
vn -0.1105 0.9871 -0.1154
vn -0.0474 0.9944 -0.0943
vn -0.0336 0.9769 0.2111
vn -0.1726 -0.5276 0.8318
vn 0.0611 -0.9904 0.1244
vn 0.2606 0.3979 0.8796
vn 0.0608 0.4004 0.9143
vn 0.0568 -0.5175 0.8538
vn -0.0816 -0.4641 0.8820
vn -0.0164 -0.1107 0.9937
vn 0.1825 -0.9190 0.3494
vn 0.1738 -0.5839 0.7930
vn 0.1489 0.5418 0.8272
vn -0.1060 -0.9848 0.1373
vn -0.1255 -0.9165 0.3798
vn 0.0619 -0.9637 0.2597
vn -0.1038 -0.9017 0.4198
vn -0.1102 -0.9188 0.3790
vn -0.2281 -0.0512 0.9723
vn -0.0084 0.9984 0.0566
vn -0.0101 0.9856 0.1689
vn -0.0615 0.9952 0.0755
vn -0.0975 0.9842 0.1477
vn -0.0587 0.9792 0.1943
vn -0.1118 0.9473 0.3003
vn 0.0814 0.9410 0.3286
vn 0.0900 0.8719 0.4813
vn 0.0033 0.9565 0.2918
vn 0.0621 0.9908 0.1201
vn 0.0677 0.9795 0.1895
vn -0.0106 0.9984 0.0553
vn -0.2029 -0.5140 0.8334
vn -0.1997 -0.4913 0.8478
vn -0.1550 0.3935 0.9062
vn -0.1069 -0.8962 0.4307
vn -0.1406 -0.9335 0.3299
vn -0.1498 -0.9343 0.3235
vn -0.1229 -0.9000 0.4182
vn -0.1000 -0.9014 0.4212
vn -0.0973 -0.9115 0.3996
vn 0.0482 -0.9628 0.2660
vn 0.0448 -0.9489 0.3125
vn 0.0552 -0.9622 0.2668
vn -0.0902 -0.9429 0.3207
vn -0.0959 -0.9817 0.1644
vn -0.0915 -0.9555 0.2803
vn -0.0833 -0.9960 -0.0330
vn -0.0801 -0.9694 0.2321
vn -0.1163 -0.9481 0.2959
vn 0.1802 0.1696 0.9689
vn 0.1630 0.1652 0.9727
vn 0.1542 0.4873 0.8595
vn 0.1616 -0.6353 0.7552
vn 0.1678 -0.5649 0.8079
vn 0.1523 -0.4379 0.8860
vn 0.1897 -0.9286 0.3188
vn 0.2055 -0.8960 0.3937
vn 0.1903 -0.8933 0.4072
vn -0.0547 -0.2838 0.9573
vn -0.1366 -0.6225 0.7706
vn -0.0895 -0.5751 0.8132
vn -0.0913 -0.6976 0.7106
vn -0.1452 -0.7328 0.6648
vn -0.1462 -0.6695 0.7283
vn 0.0536 -0.6494 0.7586
vn 0.0440 -0.6784 0.7334
vn 0.0358 -0.4466 0.8940
vn 0.0651 0.0655 0.9957
vn 0.0426 0.0501 0.9978
vn 0.0652 0.2912 0.9544
vn 0.2995 -0.0449 0.9530
vn 0.2851 -0.0414 0.9576
vn 0.2448 0.4208 0.8735
vn 0.0368 -0.9978 0.0559
vn 0.0469 -0.9890 0.1403
vn 0.0609 -0.9775 0.2022
vn -0.1538 -0.6213 0.7683
vn -0.1600 -0.5316 0.8318
vn -0.1848 -0.4353 0.8811
vn -0.1081 0.9868 0.1203
vn -0.1105 0.9871 0.1154
vn -0.0474 0.9944 0.0943
usemtl Material
s off
f 74/1/1 32/2/1 5/3/1 106/4/1
f 73/5/2 24/6/2 3/7/2 30/8/2
f 72/9/3 34/10/3 78/11/3 108/12/3
f 71/13/4 23/14/4 77/15/4 116/16/4
f 70/17/5 25/18/5 1/19/5 29/20/5
f 69/21/6 35/22/6 8/23/6 21/24/6
f 68/25/7 36/26/7 14/27/7 37/28/7
f 67/29/8 33/30/8 12/31/8 38/32/8
f 66/33/9 39/34/9 87/35/9 104/36/9
f 65/37/10 40/38/10 15/39/10 41/40/10
f 64/41/11 31/42/11 10/43/11 42/44/11
f 63/45/12 43/46/12 91/47/12 120/48/12
f 62/49/13 44/50/13 16/51/13 45/52/13
f 61/53/14 26/54/14 13/55/14 46/56/14
f 60/57/15 47/58/15 9/59/15 22/60/15
f 59/61/16 48/62/16 17/63/16 49/64/16
f 58/65/17 32/66/17 11/67/17 50/68/17
f 57/69/18 51/70/18 89/71/18 118/72/18
f 56/73/19 52/74/19 18/75/19 53/76/19
f 55/77/20 24/78/20 11/79/20 54/80/20
f 52/74/21 55/77/21 54/80/21 18/75/21
f 12/81/22 33/82/22 55/77/22 52/74/22
f 33/82/23 3/83/23 24/78/23 55/77/23
f 31/42/24 56/73/24 53/76/24 10/43/24
f 1/19/25 25/84/25 56/73/25 31/42/25
f 25/84/26 12/81/26 52/74/26 56/73/26
f 23/14/27 57/69/27 118/72/27 77/15/27
f 10/43/28 53/76/28 57/69/28 23/14/28
f 53/76/29 18/75/29 51/70/29 57/69/29
f 48/62/30 58/65/30 50/68/30 17/63/30
f 86/85/31 103/86/31 58/65/31 48/62/31
f 103/86/32 5/87/32 32/66/32 58/65/32
f 19/88/33 59/61/33 49/64/33 6/89/33
f 82/90/34 115/91/34 59/61/34 19/88/34
f 115/91/35 86/85/35 48/62/35 59/61/35
f 27/92/36 60/57/36 22/60/36 4/93/36
f 6/89/37 49/64/37 60/57/37 27/92/37
f 49/64/38 17/63/38 47/58/38 60/57/38
f 44/50/39 61/53/39 46/56/39 16/51/39
f 7/94/40 28/95/40 61/53/40 44/50/40
f 28/95/41 2/96/41 26/54/41 61/53/41
f 27/97/42 62/49/42 45/52/42 6/98/42
f 4/99/43 20/100/43 62/49/43 27/97/43
f 20/100/44 7/94/44 44/50/44 62/49/44
f 19/101/45 63/45/45 120/48/45 82/102/45
f 6/98/46 45/52/46 63/45/46 19/101/46
f 45/52/47 16/51/47 43/46/47 63/45/47
f 40/38/48 64/41/48 42/44/48 15/39/48
f 8/23/49 29/20/49 64/41/49 40/38/49
f 29/20/50 1/19/50 31/42/50 64/41/50
f 26/54/51 65/37/51 41/40/51 13/55/51
f 2/96/52 21/24/52 65/37/52 26/54/52
f 21/24/53 8/23/53 40/38/53 65/37/53
f 34/10/54 66/33/54 104/36/54 78/11/54
f 13/55/55 41/40/55 66/33/55 34/10/55
f 41/40/56 15/39/56 39/34/56 66/33/56
f 36/26/57 67/29/57 38/32/57 14/27/57
f 9/59/58 30/8/58 67/29/58 36/26/58
f 30/8/59 3/7/59 33/30/59 67/29/59
f 20/103/60 68/25/60 37/28/60 7/104/60
f 4/93/61 22/60/61 68/25/61 20/103/61
f 22/60/62 9/59/62 36/26/62 68/25/62
f 28/105/63 69/21/63 21/24/63 2/96/63
f 7/104/64 37/28/64 69/21/64 28/105/64
f 37/28/65 14/27/65 35/22/65 69/21/65
f 35/22/66 70/17/66 29/20/66 8/23/66
f 14/27/67 38/32/67 70/17/67 35/22/67
f 38/32/68 12/31/68 25/18/68 70/17/68
f 39/34/69 71/13/69 116/16/69 87/35/69
f 15/39/70 42/44/70 71/13/70 39/34/70
f 42/44/71 10/43/71 23/14/71 71/13/71
f 43/46/72 72/9/72 108/12/72 91/47/72
f 16/51/73 46/56/73 72/9/73 43/46/73
f 46/56/74 13/55/74 34/10/74 72/9/74
f 47/58/75 73/5/75 30/8/75 9/59/75
f 17/63/76 50/68/76 73/5/76 47/58/76
f 50/68/77 11/67/77 24/6/77 73/5/77
f 51/70/78 74/1/78 106/4/78 89/71/78
f 18/75/79 54/80/79 74/1/79 51/70/79
f 54/80/80 11/79/80 32/2/80 74/1/80
f 163/106/81 106/4/81 81/107/81 121/108/81
f 162/109/82 117/110/82 79/111/82 109/112/82
f 161/113/83 108/12/83 78/11/83 123/114/83
f 160/115/84 116/16/84 77/15/84 107/116/84
f 159/117/85 114/118/85 75/119/85 110/120/85
f 158/121/86 102/122/86 85/123/86 124/124/86
f 157/125/87 126/126/87 95/127/87 125/128/87
f 156/129/88 127/130/88 93/131/88 122/132/88
f 155/133/89 104/36/89 87/35/89 128/134/89
f 154/135/90 130/136/90 96/137/90 129/138/90
f 153/139/91 131/140/91 90/141/91 119/142/91
f 152/143/92 120/48/92 91/47/92 132/144/92
f 151/145/93 134/146/93 97/147/93 133/148/93
f 150/149/94 135/150/94 94/151/94 111/152/94
f 149/153/95 105/154/95 88/155/95 136/156/95
f 148/157/96 138/158/96 98/159/96 137/160/96
f 147/161/97 139/162/97 92/163/97 121/164/97
f 146/165/98 118/72/98 89/71/98 140/166/98
f 145/167/99 142/168/99 99/169/99 141/170/99
f 144/171/100 143/172/100 92/173/100 109/174/100
f 141/170/101 99/169/101 143/172/101 144/171/101
f 93/175/102 141/170/102 144/171/102 122/176/102
f 122/176/103 144/171/103 109/174/103 79/177/103
f 119/142/104 90/141/104 142/168/104 145/167/104
f 75/119/105 119/142/105 145/167/105 110/178/105
f 110/178/106 145/167/106 141/170/106 93/175/106
f 107/116/107 77/15/107 118/72/107 146/165/107
f 90/141/108 107/116/108 146/165/108 142/168/108
f 142/168/109 146/165/109 140/166/109 99/169/109
f 137/160/110 98/159/110 139/162/110 147/161/110
f 86/85/111 137/160/111 147/161/111 103/86/111
f 103/86/112 147/161/112 121/164/112 81/179/112
f 100/180/113 83/181/113 138/158/113 148/157/113
f 82/90/114 100/180/114 148/157/114 115/91/114
f 115/91/115 148/157/115 137/160/115 86/85/115
f 112/182/116 80/183/116 105/154/116 149/153/116
f 83/181/117 112/182/117 149/153/117 138/158/117
f 138/158/118 149/153/118 136/156/118 98/159/118
f 133/148/119 97/147/119 135/150/119 150/149/119
f 84/184/120 133/148/120 150/149/120 113/185/120
f 113/185/121 150/149/121 111/152/121 76/186/121
f 112/187/122 83/188/122 134/146/122 151/145/122
f 80/189/123 112/187/123 151/145/123 101/190/123
f 101/190/124 151/145/124 133/148/124 84/184/124
f 100/191/125 82/102/125 120/48/125 152/143/125
f 83/188/126 100/191/126 152/143/126 134/146/126
f 134/146/127 152/143/127 132/144/127 97/147/127
f 129/138/128 96/137/128 131/140/128 153/139/128
f 85/123/129 129/138/129 153/139/129 114/118/129
f 114/118/130 153/139/130 119/142/130 75/119/130
f 111/152/131 94/151/131 130/136/131 154/135/131
f 76/186/132 111/152/132 154/135/132 102/122/132
f 102/122/133 154/135/133 129/138/133 85/123/133
f 123/114/134 78/11/134 104/36/134 155/133/134
f 94/151/135 123/114/135 155/133/135 130/136/135
f 130/136/136 155/133/136 128/134/136 96/137/136
f 125/128/137 95/127/137 127/130/137 156/129/137
f 88/155/138 125/128/138 156/129/138 117/110/138
f 117/110/139 156/129/139 122/132/139 79/111/139
f 101/192/140 84/193/140 126/126/140 157/125/140
f 80/183/141 101/192/141 157/125/141 105/154/141
f 105/154/142 157/125/142 125/128/142 88/155/142
f 113/194/143 76/186/143 102/122/143 158/121/143
f 84/193/144 113/194/144 158/121/144 126/126/144
f 126/126/145 158/121/145 124/124/145 95/127/145
f 124/124/146 85/123/146 114/118/146 159/117/146
f 95/127/147 124/124/147 159/117/147 127/130/147
f 127/130/148 159/117/148 110/120/148 93/131/148
f 128/134/149 87/35/149 116/16/149 160/115/149
f 96/137/150 128/134/150 160/115/150 131/140/150
f 131/140/151 160/115/151 107/116/151 90/141/151
f 132/144/152 91/47/152 108/12/152 161/113/152
f 97/147/153 132/144/153 161/113/153 135/150/153
f 135/150/154 161/113/154 123/114/154 94/151/154
f 136/156/155 88/155/155 117/110/155 162/109/155
f 98/159/156 136/156/156 162/109/156 139/162/156
f 139/162/157 162/109/157 109/112/157 92/163/157
f 140/166/158 89/71/158 106/4/158 163/106/158
f 99/169/159 140/166/159 163/106/159 143/172/159
f 143/172/160 163/106/160 121/108/160 92/173/160
